<svg xmlns="http://www.w3.org/2000/svg" width="204" height="204" viewBox="0 0 204 204" version="1.1">
	<path d="M 86.835 1.543 C 53.124 6.795, 24.475 28.371, 9.892 59.489 C -2.510 85.956, -2.677 117.352, 9.448 143.593 C 17.060 160.069, 30.756 176.443, 44.881 185.955 C 84.562 212.677, 136.777 208.568, 171.388 176 C 191.487 157.087, 202.075 133.303, 204.666 101.250 C 205 97.112, 204.804 95, 204.085 95 C 203.488 95, 202.993 93.313, 202.985 91.250 C 202.961 85.202, 200.090 74.725, 197.784 72.270 C 195.260 69.584, 188.654 69.153, 185.360 71.460 C 181.302 74.303, 180.564 78.153, 182.001 89.004 C 183.478 100.164, 182.904 113.363, 180.544 122.500 C 179.692 125.800, 176.682 133.205, 173.856 138.954 C 169.409 148.002, 167.492 150.640, 159.609 158.556 C 149.043 169.165, 140.679 174.455, 127 179.178 C 117.856 182.335, 116.919 182.458, 102 182.458 C 87.081 182.458, 86.144 182.335, 77 179.178 C 50.672 170.088, 31.640 150.424, 23.854 124.266 C 20.912 114.382, 20.263 96.752, 22.444 85.942 C 28.197 57.427, 48.967 34.134, 77 24.760 C 86.026 21.741, 87.274 21.582, 102 21.563 C 116.918 21.543, 117.851 21.664, 126.851 24.786 C 137.370 28.435, 147.318 33.904, 154 39.713 C 160.684 45.523, 163.151 47, 166.175 47 C 172.296 47, 177 42.460, 177 36.553 C 177 30.935, 162.426 18.700, 146.500 10.948 C 135.208 5.452, 125.408 2.550, 113.026 1.036 C 102.473 -0.254, 97.793 -0.164, 86.835 1.543 M 0.320 102 C 0.320 105.575, 0.502 107.037, 0.723 105.250 C 0.945 103.463, 0.945 100.537, 0.723 98.750 C 0.502 96.963, 0.320 98.425, 0.320 102" stroke="none" fill="#962fa5" fill-rule="evenodd"/>
</svg>